HIERARCHY
ROOT root
{
	OFFSET	0	13.1	24.9
	CHANNELS 6  Xposition Yposition Zposition Xrotation Yrotation Zrotation
	JOINT spine_1
	{
		OFFSET	0	9.99999	0
		CHANNELS 3  Xrotation Yrotation Zrotation
		JOINT spine_2
		{
			OFFSET	0	112	-10
			CHANNELS 3  Xrotation Yrotation Zrotation
			JOINT spine_3
			{
				OFFSET	0	206.5	19.3
				CHANNELS 3  Xrotation Yrotation Zrotation
				JOINT spine_4
				{
					OFFSET	0	110.4	14.6
					CHANNELS 3  Xrotation Yrotation Zrotation
					JOINT neck_1
					{
						OFFSET	0	71.8	-50.3
						CHANNELS 3  Xrotation Yrotation Zrotation
						JOINT neck_2
						{
							OFFSET	0	86.2	-25.8
							CHANNELS 3  Xrotation Yrotation Zrotation
							JOINT head_ee
							{
								OFFSET	0	179.8	-8.7
								CHANNELS 3  Xrotation Yrotation Zrotation
								End Site
								{
									OFFSET	1	0	0
								}
							}
						}
					}
					JOINT left_clavicle
					{
						OFFSET	-43.2	22.4	-70.8
						CHANNELS 3  Xrotation Yrotation Zrotation
						JOINT left_shoulder
						{
							OFFSET	-93.9	-5.79999	48.7
							CHANNELS 3  Xrotation Yrotation Zrotation
							JOINT left_elbow
							{
								OFFSET	-291.4	-30.8	15.2
								CHANNELS 3  Xrotation Yrotation Zrotation
								JOINT left_lowarm_twist
								{
									OFFSET	-110.7	-3.89999	13.6
									CHANNELS 3  Xrotation Yrotation Zrotation
									JOINT left_hand
									{
										OFFSET	-110.7	-3.89999	13.6
										CHANNELS 3  Xrotation Yrotation Zrotation
										JOINT left_ee
										{
											OFFSET	-80.8	-5.10001	12.1
											CHANNELS 3  Xrotation Yrotation Zrotation
											End Site
											{
												OFFSET	1	0	0
											}
										}
									}
								}
							}
						}
					}
					JOINT right_clavicle
					{
						OFFSET	43.2	22.4	-70.8
						CHANNELS 3  Xrotation Yrotation Zrotation
						JOINT right_shoulder
						{
							OFFSET	93.9	-5.79999	48.7
							CHANNELS 3  Xrotation Yrotation Zrotation
							JOINT right_elbow
							{
								OFFSET	291.4	-30.8	15.2
								CHANNELS 3  Xrotation Yrotation Zrotation
								JOINT right_lowarm_twist
								{
									OFFSET	110.7	-3.89999	13.6
									CHANNELS 3  Xrotation Yrotation Zrotation
									JOINT right_hand
									{
										OFFSET	110.7	-3.89999	13.6
										CHANNELS 3  Xrotation Yrotation Zrotation
										JOINT right_ee
										{
											OFFSET	80.8	-5.10001	12.1
											CHANNELS 3  Xrotation Yrotation Zrotation
											End Site
											{
												OFFSET	1	0	0
											}
										}
									}
								}
							}
						}
					}
				}
			}
		}
	}
	JOINT left_hip
	{
		OFFSET	-82.8	-127.5	0.300001
		CHANNELS 3  Xrotation Yrotation Zrotation
		JOINT left_knee
		{
			OFFSET	-28.2	-396.7	2.2
			CHANNELS 3  Xrotation Yrotation Zrotation
			JOINT left_ankle
			{
				OFFSET	-11.7	-411.3	35.4
				CHANNELS 3  Xrotation Yrotation Zrotation
				JOINT left_toes
				{
					OFFSET	0	-60	-88.6
					CHANNELS 3  Xrotation Yrotation Zrotation
					JOINT left_foot_ee
					{
						OFFSET	-22.5	-16.5	-42.2
						CHANNELS 3  Xrotation Yrotation Zrotation
						End Site
						{
							OFFSET	1	0	0
						}
					}
				}
			}
		}
	}
	JOINT right_hip
	{
		OFFSET	82.8	-127.5	0.300001
		CHANNELS 3  Xrotation Yrotation Zrotation
		JOINT right_knee
		{
			OFFSET	28.2	-396.7	2.2
			CHANNELS 3  Xrotation Yrotation Zrotation
			JOINT right_ankle
			{
				OFFSET	11.7	-411.3	35.4
				CHANNELS 3  Xrotation Yrotation Zrotation
				JOINT right_toes
				{
					OFFSET	0	-60	-88.6
					CHANNELS 3  Xrotation Yrotation Zrotation
					JOINT right_foot_ee
					{
						OFFSET	22.5	-16.5	-42.2
						CHANNELS 3  Xrotation Yrotation Zrotation
						End Site
						{
							OFFSET	1	0	0
						}
					}
				}
			}
		}
	}
}
MOTION
Frames: 6
Frame Time: 0.02
1943.54 730.319 -1080.39 3.09259 49.3062 -2.89427 -3.54531 -0.109704 -0.499009 -3.54518 -0.0777289 -0.504978 -3.54427 0.0616149 -0.507196 -3.54463 -0.0192595 -0.510562 2.53141 15.9718 4.23677 3.0954 24.4444 5.77976 -0.0 0.0 -0.0 9.84133 0.612227 19.2983 8.0632 -9.79943 44.9249 4.11336 -63.841 2.56306 1.10824 0.0377277 -0.136513 2.48312 -5.42184 14.6017 -0.0 0.0 -0.0 12.3137 13.3881 -24.9601 -21.1825 16.311 -49.3639 0.360948 10.1377 -0.0320162 58.335 1.62795 6.95222 -2.69011 -25.5686 4.97952 0.0 0.0 0.0 -11.7135 37.7495 5.48963 -16.6495 0.320483 2.52595 28.2033 7.151 -3.69335 39.2514 -0.0 -0.0 -0.0 0.0 -0.0 31.9849 -27.6903 -4.81879 -10.5453 -0.288513 -1.59036 -0.953124 3.60538 -0.142946 20.7137 -0.0 -0.0 0.0 0.0 0.0 
1910.93 728.227 -1099.08 2.07774 49.5965 -3.15465 -3.35118 -0.108949 -0.21552 -3.35116 -0.0950138 -0.222016 -3.35075 -0.0322967 -0.239323 -3.35082 -0.0696879 -0.231219 4.4268 16.356 3.71684 5.12072 25.0611 4.95909 -0.0 0.0 -0.0 9.80115 0.900813 19.2014 5.34245 -8.70529 45.5572 3.83123 -62.1981 2.31161 0.0672876 0.00236588 -0.00826778 2.5146 -4.88377 15.0495 -0.0 0.0 -0.0 12.4865 13.7124 -25.3499 -21.2347 17.2449 -49.6098 0.379046 10.6347 -0.0352789 58.4642 1.63912 6.96446 -2.67963 -25.7893 4.80314 0.0 0.0 0.0 -11.5473 36.1783 6.00074 -18.6412 0.309334 2.83133 25.2576 7.28375 -3.36072 39.4799 -0.0 -0.0 -0.0 0.0 -0.0 31.2844 -29.0316 -4.57596 -10.993 -0.294244 -1.65882 -0.986009 1.83025 -0.146987 21.2057 -0.0 -0.0 0.0 0.0 0.0 
1889.87 728.936 -1113.29 1.59509 49.0855 -2.73773 -3.3122 0.0421398 -0.195774 -3.31218 0.054512 -0.192696 -3.31235 0.103861 -0.17122 -3.31238 0.075517 -0.185474 3.81681 16.9134 3.77981 4.54439 26.148 5.12296 -0.0 0.0 -0.0 9.69807 1.80537 18.9439 1.92494 -8.14845 46.5367 3.86513 -62.4055 2.34162 -2.02988 -0.0759292 0.248074 2.51895 -4.34819 15.3057 -0.0 0.0 -0.0 12.8639 14.2451 -26.2081 -21.0936 17.9112 -49.054 0.431788 12.0736 -0.0456632 58.4517 1.63804 6.96328 -2.58874 -25.7689 4.30501 0.0 0.0 0.0 -11.1195 33.8375 5.72113 -19.9645 0.296061 3.03392 22.9947 8.33409 -3.09597 39.1541 -0.0 -0.0 -0.0 0.0 -0.0 30.852 -29.0627 -4.25651 -11.3123 -0.298005 -1.70767 -1.92811 4.72532 -0.291113 20.5918 -0.0 -0.0 0.0 0.0 0.0 
1863.34 733.849 -1136.37 1.94984 49.2609 -3.08882 -3.22244 0.268496 -0.102947 -3.22248 0.274503 -0.0856532 -3.22296 0.287385 -0.00990374 -3.22284 0.282214 -0.0551669 4.84228 17.1784 3.28797 5.67383 26.7526 4.41874 -0.0 0.0 -0.0 9.69707 2.79406 18.8847 -0.769636 -7.32263 47.3585 3.41398 -59.39 1.94729 -3.45306 -0.134391 0.420349 2.48747 -3.70679 15.3545 -0.0 0.0 -0.0 13.1596 14.8149 -26.8799 -20.2593 18.8345 -49.4843 0.475754 13.2614 -0.0553052 58.4324 1.63638 6.96145 -2.5642 -25.8315 4.13491 0.0 0.0 0.0 -9.99885 30.9856 5.1639 -21.597 0.273243 3.28337 21.4645 9.12583 -2.9126 38.6825 -0.0 -0.0 -0.0 0.0 -0.0 28.1955 -28.7477 -4.48953 -12.2981 -0.307895 -1.85861 -2.03237 6.32933 -0.309081 20.3415 -0.0 -0.0 0.0 0.0 0.0 
1825.84 734.307 -1153.26 4.41424 47.9565 -4.47386 -3.38034 0.267671 -0.186306 -3.38036 0.278984 -0.168896 -3.38126 0.313995 -0.0881201 -3.38115 0.296137 -0.136604 7.62082 17.8122 1.85395 8.78902 28.3225 2.3167 -0.0 0.0 -0.0 9.74136 5.28764 18.8017 -3.60586 -6.40421 49.9592 2.8699 -54.8668 1.48996 -5.0613 -0.20559 0.613235 2.33645 -3.07452 14.5651 -0.0 0.0 -0.0 13.077 14.8181 -26.6871 -20.2705 19.2631 -50.3176 0.504214 14.0242 -0.062018 58.7045 1.65996 6.98714 -2.47573 -26.0805 3.51147 0.0 0.0 0.0 -9.28478 27.2293 3.96853 -28.1334 0.111022 4.27282 21.7509 12.3041 -2.95818 38.9878 -0.0 -0.0 -0.0 0.0 -0.0 23.895 -24.9433 -5.73346 -16.1373 -0.321634 -2.44738 -5.23706 7.98714 -0.808511 21.1073 -0.0 -0.0 0.0 0.0 0.0 
1799.43 738.856 -1167.74 6.22385 47.9787 -6.54134 -3.46265 -0.0174539 -0.0364213 -3.46265 -0.015101 -0.0374581 -3.46264 -0.00447474 -0.0401388 -3.46264 -0.0107578 -0.0389284 7.86175 18.2529 2.01706 9.09202 28.8543 2.46402 -0.0 0.0 -0.0 9.58123 6.68028 18.3803 -7.15941 -5.19298 51.4642 2.60487 -52.2167 1.27675 -6.77338 -0.287315 0.816324 2.20319 -2.79701 13.7552 -0.0 0.0 -0.0 13.131 16.6747 -26.7444 -19.0515 20.2217 -50.8932 0.533573 14.8058 -0.0693271 58.6314 1.65361 6.98025 -2.45548 -26.2119 3.33085 0.0 0.0 0.0 -7.06741 22.5287 3.13411 -34.8895 -0.17405 5.26978 22.6827 11.8859 -3.06933 38.8266 -0.0 -0.0 -0.0 0.0 -0.0 21.9214 -22.8863 -3.44398 -18.6554 -0.309216 -2.8335 -3.1478 13.386 -0.500017 21.3204 -0.0 -0.0 0.0 0.0 0.0 
